<svg xmlns="http://www.w3.org/2000/svg" width="256" height="256" viewBox="0 0 24 24" fill="none"><path fill="#3C4043" d="M11 4a1 1 0 1 1 2 0v1h1.5A3.5 3.5 0 0 1 18 8.5V10h1a1 1 0 1 1 0 2h-1v3.5A3.5 3.5 0 0 1 14.5 19h-5A3.5 3.5 0 0 1 6 15.5V12H5a1 1 0 1 1 0-2h1V8.5A3.5 3.5 0 0 1 9.5 5H11V4Zm-1.5 3A1.5 1.5 0 0 0 8 8.5V16a1.5 1.5 0 0 0 1.5 1.5h5A1.5 1.5 0 0 0 16 16V8.5A1.5 1.5 0 0 0 14.5 7h-5ZM10 12.25a.75.75 0 1 1-1.5 0 .75.75 0 0 1 1.5 0Zm6 0a.75.75 0 1 1-1.5 0 .75.75 0 0 1 1.5 0ZM10 15h5v1h-5v-1Z"/></svg>

